# xmcd
#
# Track frame offsets:
# 187
# 13762
# 30517
# 45905
# 58320
# 76185
# 90387
# 104730
# 116587
# 131687
#
# Disc length: 1907 seconds
#
#
# Revision: 2
# Processed by: cddbd v1.5.1PL0 Copyright (c) Steve Scherf et al.
# Submitted via: FreeRIP 2.931 
#
DISCID=7907710a
DTITLE=Reba McEntire - Whoever's In New England
DYEAR=1986
DGENRE=Country
TTITLE0=Can't Stop Now
TTITLE1=You Can Take The Wings Off Me
TTITLE2=Whoever's In New England
TTITLE3=I'll Believe It When I Feel It
TTITLE4=I've Seen Better Days
TTITLE5=Little Rock
TTITLE6=If You Only Knew
TTITLE7=One Thin Dime
TTITLE8=Don't Touch Me There
TTITLE9=To Make That Same Mistake Again
EXTD=
EXTT0=
EXTT1=
EXTT2=
EXTT3=
EXTT4=
EXTT5=
EXTT6=
EXTT7=
EXTT8=
EXTT9=
PLAYORDER=
